#!OML:ASF H:\Punching\Project 1\Capture day 1\Session 1\female.ASF
:FULLY-SPECIFIED
:DEGREES
1327
root -0.0312317 13.1633 0.30352 21.3229 6.78844 4.54409
lowerback 20.5206 4.38356 0.0176695
upperback 3.74319 5.80755 1.11629
thorax -7.47611 2.79706 -0.340723
lowerneck -7.15572 0.437322 10.2528
upperneck 6.28558 -0.346391 -1.6116
head 3.34404 0.0249194 -2.39249
rclavicle -2.22639e-014 -2.70347e-014
rhumerus 44.6468 17.5815 -73.3164
rradius 77.3784
rwrist -35.9018
rhand -24.8386 -25.7274
rfingers 7.12502
rthumb 1.66745 -55.7006
lclavicle -2.22639e-014 -2.70347e-014
lhumerus 38.9823 -33.2118 73.6546
lradius 133.352
lwrist 13.3905
lhand -21.7033 8.67142
lfingers 7.12502
lthumb 4.69527 38.5994
rfemur -25.4433 -27.0988 -3.10816
rtibia 73.4094
rfoot -31.823 -7.72665
rtoes -34.6376
lfemur -75.8923 -1.21862 -17.2289
ltibia 61.6459
lfoot -4.3235 0.683154
ltoes -3.60899
1328
root -0.00467905 13.2334 0.319675 21.3245 5.62088 3.8644
lowerback 20.2097 4.22174 -0.136578
upperback 3.65694 5.54653 0.905026
thorax -7.39619 2.67467 -0.393069
lowerneck -7.02884 0.911826 10.7912
upperneck 6.25161 0.275595 -2.01455
head 3.36339 0.329421 -2.60077
rclavicle 1.11319e-014 9.54166e-015
rhumerus 42.3057 18.6071 -73.8255
rradius 83.3609
rwrist -37.8371
rhand -24.5685 -25.7613
rfingers 7.12502
rthumb 1.92827 -55.7323
lclavicle 1.11319e-014 9.54166e-015
lhumerus 39.0137 -32.9406 73.2264
lradius 133.442
lwrist 13.7073
lhand -21.8972 8.96909
lfingers 7.12502
lthumb 4.50806 38.9011
rfemur -25.7016 -26.1704 -2.22473
rtibia 71.958
rfoot -31.5593 -8.02406
rtoes -34.3445
lfemur -75.3894 -0.929197 -16.035
ltibia 61.4316
lfoot -4.52067 1.85045
ltoes -3.78297
1329
root 0.0240187 13.3016 0.335874 21.3597 4.35681 3.19003
lowerback 19.93 4.07867 -0.277694
upperback 3.51908 5.30831 0.622657
thorax -7.38075 2.56108 -0.540602
lowerneck -6.82909 1.36611 11.5117
upperneck 6.49124 0.885668 -2.66295
head 3.11831 0.613883 -2.61811
rclavicle -1.03368e-014 9.54166e-015
rhumerus 39.7297 19.4219 -74.5927
rradius 89.1136
rwrist -39.3435
rhand -24.0927 -25.508
rfingers 7.12502
rthumb 2.38786 -55.4744
lclavicle -1.03368e-014 9.54166e-015
lhumerus 39.0454 -32.7626 72.7987
lradius 133.518
lwrist 14.0784
lhand -22.0219 9.15656
lfingers 7.12502
lthumb 4.38761 39.0911
rfemur -25.9781 -25.2379 -1.38068
rtibia 70.4762
rfoot -31.3038 -8.32273
rtoes -34.0748
lfemur -74.8721 -0.584487 -14.8591
ltibia 61.2461
lfoot -4.74915 3.00312
ltoes -3.9224
1330
root 0.0542315 13.3678 0.352601 21.4256 3.00163 2.52498
lowerback 19.6684 3.94698 -0.434253
upperback 3.33994 5.07885 0.293267
thorax -7.41738 2.45086 -0.736123
lowerneck -6.66149 1.82005 12.2705
upperneck 6.56819 1.46678 -3.06564
head 3.16505 0.906557 -2.83468
rclavicle -1.03368e-014 -6.36111e-015
rhumerus 36.9712 20.0936 -75.5408
rradius 94.6128
rwrist -40.5374
rhand -23.5435 -24.9839
rfingers 7.12502
rthumb 2.91823 -54.9437
lclavicle -1.03368e-014 -6.36111e-015
lhumerus 39.0623 -32.6367 72.3802
lradius 133.594
lwrist 14.4572
lhand -22.0775 9.22625
lfingers 7.12502
lthumb 4.33395 39.1619
rfemur -26.2621 -24.2968 -0.58352
rtibia 68.9645
rfoot -31.0551 -8.61264
rtoes -33.82
lfemur -74.3339 -0.173085 -13.7198
ltibia 61.0897
lfoot -5.01148 4.11702
ltoes -4.03931
1331
root 0.085962 13.4312 0.370461 21.5115 1.56013 1.8747
lowerback 19.4174 3.81383 -0.640198
upperback 3.14012 4.83662 -0.0513168
thorax -7.48592 2.33519 -0.919494
lowerneck -6.50095 2.29909 13.0787
upperneck 6.71397 2.07909 -3.48734
head 3.24413 1.21769 -3.06271
rclavicle 1.27222e-014 -7.95139e-016
rhumerus 34.1433 20.6837 -76.5625
rradius 99.8142
rwrist -41.5627
rhand -22.9594 -24.2789
rfingers 7.12502
rthumb 3.48233 -54.2302
lclavicle 1.27222e-014 -7.95139e-016
lhumerus 39.0967 -32.4532 71.9742
lradius 133.648
lwrist 14.8337
lhand -22.0623 9.20376
lfingers 7.12502
lthumb 4.34859 39.1391
rfemur -26.5287 -23.3432 0.148063
rtibia 67.4173
rfoot -30.8172 -8.87369
rtoes -33.5753
lfemur -73.7602 0.30466 -12.6334
ltibia 60.9653
lfoot -5.31413 5.18571
ltoes -4.12947
1332
root 0.118657 13.4921 0.389356 21.6171 0.0530014 1.2442
lowerback 19.1687 3.66639 -0.913561
upperback 2.9259 4.56314 -0.387613
thorax -7.5783 2.20627 -1.04993
lowerneck -6.32435 2.81308 13.8868
upperneck 6.90505 2.74401 -3.92164
head 3.34694 1.55638 -3.2908
rclavicle 3.97569e-014 -7.15625e-015
rhumerus 31.3225 21.2379 -77.5864
rradius 104.688
rwrist -42.5071
rhand -22.3753 -23.4588
rfingers 7.12502
rthumb 4.04635 -53.4001
lclavicle 3.97569e-014 -7.15625e-015
lhumerus 39.136 -32.1821 71.5708
lradius 133.706
lwrist 15.1673
lhand -22.0346 9.16641
lfingers 7.12502
lthumb 4.37536 39.1012
rfemur -26.7631 -22.3849 0.808726
rtibia 65.8277
rfoot -30.5919 -9.09993
rtoes -33.3621
lfemur -73.1543 0.841318 -11.6142
ltibia 60.8719
lfoot -5.65037 6.19806
ltoes -4.21765
1333
root 0.151693 13.5507 0.409692 21.7281 -1.49959 0.621518
lowerback 18.9242 3.486 -1.27246
upperback 2.7149 4.23352 -0.677792
thorax -7.67988 2.05356 -1.06975
lowerneck -6.13414 3.38489 14.6364
upperneck 7.12749 3.49835 -4.3719
head 3.47316 1.93866 -3.50809
rclavicle -4.37326e-015 -5.1684e-015
rhumerus 28.6287 21.822 -78.535
rradius 109.192
rwrist -43.4333
rhand -21.8344 -22.6223
rfingers 7.12502
rthumb 4.56863 -52.553
lclavicle -4.37326e-015 -5.1684e-015
lhumerus 39.1612 -31.7493 71.173
lradius 133.783
lwrist 15.4303
lhand -22.035 9.16382
lfingers 7.12502
lthumb 4.37501 39.0986
rfemur -26.933 -21.4082 1.40843
rtibia 64.1827
rfoot -30.3821 -9.28273
rtoes -33.1747
lfemur -72.5037 1.4278 -10.6507
ltibia 60.8099
lfoot -6.02528 7.15721
ltoes -4.27952
1334
root 0.184339 13.6068 0.430745 21.8555 -3.0533 0.00390195
lowerback 18.692 3.27467 -1.68561
upperback 2.48769 3.85688 -0.918332
thorax -7.81184 1.88102 -0.996244
lowerneck -5.89923 3.99032 15.3468
upperneck 7.36388 4.31492 -4.85117
head 3.61151 2.35067 -3.72287
rclavicle -7.55382e-015 3.18055e-015
rhumerus 26.0767 22.3959 -79.39
rradius 113.309
rwrist -44.3523
rhand -21.3776 -21.8671
rfingers 7.12502
rthumb 5.00971 -51.7878
lclavicle -7.55382e-015 3.18055e-015
lhumerus 39.1263 -31.2075 70.8105
lradius 133.892
lwrist 15.6339
lhand -22.0866 9.19797
lfingers 7.12502
lthumb 4.32514 39.1338
rfemur -27.0278 -20.436 1.95948
rtibia 62.4754
rfoot -30.1898 -9.40482
rtoes -32.9882
lfemur -71.8353 2.04603 -9.74313
ltibia 60.7734
lfoot -6.42459 8.05471
ltoes -4.29971
1335
root 0.216309 13.6602 0.452849 21.9851 -4.56475 -0.614555
lowerback 18.4887 3.01185 -2.16248
upperback 2.25863 3.40746 -1.06702
thorax -7.96811 1.67791 -0.772149
lowerneck -5.6421 4.64526 15.9529
upperneck 7.60733 5.21831 -5.35775
head 3.76526 2.80224 -3.92194
rclavicle -7.95139e-016 8.49804e-015
rhumerus 23.7414 23.0169 -80.1143
rradius 117.019
rwrist -45.2543
rhand -21.0419 -21.26
rfingers 7.12502
rthumb 5.33392 -51.1728
lclavicle -7.95139e-016 8.49804e-015
lhumerus 38.9952 -30.4883 70.5233
lradius 134.037
lwrist 15.7879
lhand -22.1829 9.24789
lfingers 7.12502
lthumb 4.23214 39.1856
rfemur -27.0064 -19.4565 2.46859
rtibia 60.6985
rfoot -30.0125 -9.48176
rtoes -32.8277
lfemur -71.1496 2.65722 -8.86991
ltibia 60.759
lfoot -6.83799 8.89865
ltoes -4.20786
1336
root 0.246965 13.7117 0.475667 22.1155 -6.00892 -1.24683
lowerback 18.3361 2.7328 -2.60763
upperback 2.017 2.94468 -1.17459
thorax -8.16075 1.46971 -0.521395
lowerneck -5.36444 5.29499 16.5328
upperneck 7.83125 6.12546 -5.85996
head 3.91943 3.25493 -4.11229
rclavicle 3.49861e-014 -1.77912e-014
rhumerus 21.5774 23.5308 -80.7608
rradius 120.323
rwrist -46.0796
rhand -20.8404 -20.8077
rfingers 7.12502
rthumb 5.52848 -50.7156
lclavicle 3.49861e-014 -1.77912e-014
lhumerus 38.798 -29.776 70.2657
lradius 134.245
lwrist 15.93
lhand -22.3136 9.30354
lfingers 7.12502
lthumb 4.10599 39.2437
rfemur -26.8672 -18.4654 2.95742
rtibia 58.8539
rfoot -29.8324 -9.51168
rtoes -32.7352
lfemur -70.4527 3.23636 -7.99527
ltibia 60.7551
lfoot -7.25 9.6965
ltoes -3.98229
1337
root 0.276587 13.7609 0.499134 22.2401 -7.35043 -1.88167
lowerback 18.2366 2.44787 -2.9715
upperback 1.77103 2.489 -1.26637
thorax -8.37893 1.2644 -0.303295
lowerneck -5.07031 5.90977 17.1081
upperneck 8.00745 6.9916 -6.33479
head 4.06046 3.6874 -4.29325
rclavicle -1.59028e-015 3.97569e-015
rhumerus 19.5802 23.8756 -81.3418
rradius 123.241
rwrist -46.8118
rhand -20.7715 -20.5145
rfingers 7.12502
rthumb 5.59493 -50.4206
lclavicle -1.59028e-015 3.97569e-015
lhumerus 38.5764 -29.1098 70.0368
lradius 134.487
lwrist 16.1097
lhand -22.452 9.37154
lfingers 7.12502
lthumb 3.97228 39.3143
rfemur -26.5991 -17.4784 3.41311
rtibia 56.9557
rfoot -29.6351 -9.48486
rtoes -32.7162
lfemur -69.7541 3.74203 -7.11645
ltibia 60.7526
lfoot -7.64672 10.4539
ltoes -3.59743
1338
root 0.305026 13.8081 0.522791 22.3577 -8.5629 -2.5098
lowerback 18.1823 2.15676 -3.24265
upperback 1.526 2.04209 -1.34416
thorax -8.61422 1.06206 -0.125544
lowerneck -4.75334 6.47769 17.6656
upperneck 8.11936 7.80127 -6.76951
head 4.17812 4.09195 -4.46082
rclavicle -8.34896e-015 7.55382e-015
rhumerus 17.7463 24.0572 -81.8597
rradius 125.779
rwrist -47.4147
rhand -20.7893 -20.3591
rfingers 7.12502
rthumb 5.57778 -50.2657
lclavicle -8.34896e-015 7.55382e-015
lhumerus 38.3303 -28.5215 69.8317
lradius 134.76
lwrist 16.3143
lhand -22.5944 9.46044
lfingers 7.12502
lthumb 3.83478 39.4057
rfemur -26.2149 -16.5161 3.83327
rtibia 55.0312
rfoot -29.4048 -9.39512
rtoes -32.7835
lfemur -69.0646 4.15066 -6.23813
ltibia 60.737
lfoot -8.01698 11.1734
ltoes -3.10622
1339
root 0.332236 13.8528 0.546141 22.4619 -9.61463 -3.10835
lowerback 18.1529 1.84322 -3.44164
upperback 1.3063 1.58122 -1.39503
thorax -8.83089 0.852084 0.0450819
lowerneck -4.45145 7.0138 18.184
upperneck 8.17479 8.57008 -7.17709
head 4.2809 4.47483 -4.61411
rclavicle -3.57812e-015 1.03368e-014
rhumerus 16.1431 24.1338 -82.2789
rradius 127.938
rwrist -47.8909
rhand -20.8287 -20.3103
rfingers 7.12502
rthumb 5.53978 -50.2179
lclavicle -3.57812e-015 1.03368e-014
lhumerus 38.0943 -27.9365 69.6562
lradius 135.025
lwrist 16.5405
lhand -22.7174 9.56342
lfingers 7.12502
lthumb 3.716 39.5108
rfemur -25.727 -15.6004 4.20452
rtibia 53.1232
rfoot -29.1362 -9.24745
rtoes -32.9114
lfemur -68.3983 4.42918 -5.37934
ltibia 60.6975
lfoot -8.35459 11.8613
ltoes -2.5532
